<?xml version="1.0" encoding="UTF-8"?><svg id="Capa_1" xmlns="http://www.w3.org/2000/svg" viewBox="0 0 399.53 386.41"><defs><style>.cls-1{fill:#2a223a;}</style></defs><path id="liked" class="cls-1" d="M199.73,354.71c-11.35,0-22.69-2.93-31.52-8.78C15.23,244.47,18.66,146.34,19.49,135.96c.3-57.54,47.21-104.27,104.82-104.27,25.06,0,50.22,15.1,74.77,44.88,.32,.38,.72,.58,1.19,.58h0c.47,0,.88-.2,1.2-.58,24.48-29.12,49.31-43.89,73.83-43.89,57.8,0,104.82,47.02,104.82,104.82v.09c.84,18.73-3.07,111.63-148.72,208.26-8.89,5.9-20.3,8.85-31.69,8.85ZM124.32,55.81c-44.51,0-80.71,36.21-80.71,80.71l-.07,1.32c-.07,.82-6.94,91.86,138.01,187.99,9.71,6.44,26.79,6.42,36.55-.06,138.69-92.02,138.43-177.85,137.95-187.34l-.02-.72v-.25c0-44.46-36.2-80.67-80.71-80.67-21.25,0-41.84,19.19-55.37,35.3-4.91,5.84-12.07,9.18-19.66,9.18h-.12c-7.63-.04-14.8-3.45-19.67-9.35-13.58-16.47-34.35-36.11-56.17-36.11Z"/></svg>