<?xml version="1.0" encoding="UTF-8"?><svg id="Capa_1" xmlns="http://www.w3.org/2000/svg" viewBox="0 0 399.53 386.41"><defs><style>.cls-1{fill:#2a223a;}</style></defs><g id="library"><path class="cls-1" d="M85.45,371.59h0c-26.82,0-48.56-21.74-48.56-48.56V63.38c0-26.82,21.74-48.56,48.56-48.56h0c26.82,0,48.56,21.74,48.56,48.56V323.02c0,26.82-21.74,48.56-48.56,48.56Zm0-24.11h0c13.51,0,24.45-10.95,24.45-24.45V63.38c0-13.51-10.95-24.45-24.45-24.45h0c-13.51,0-24.45,10.95-24.45,24.45V323.02c0,13.51,10.95,24.45,24.45,24.45Z"/><path class="cls-1" d="M199.77,371.59h0c-26.82,0-48.56-21.74-48.56-48.56V63.38c0-26.82,21.74-48.56,48.56-48.56h0c26.82,0,48.56,21.74,48.56,48.56V323.02c0,26.82-21.74,48.56-48.56,48.56Zm0-24.11h0c13.51,0,24.45-10.95,24.45-24.45V63.38c0-13.51-10.95-24.45-24.45-24.45h0c-13.51,0-24.45,10.95-24.45,24.45V323.02c0,13.51,10.95,24.45,24.45,24.45Z"/><path class="cls-1" d="M314.08,371.59h0c-26.82,0-48.56-21.74-48.56-48.56V63.38c0-26.82,21.74-48.56,48.56-48.56h0c26.82,0,48.56,21.74,48.56,48.56V323.02c0,26.82-21.74,48.56-48.56,48.56Zm0-24.11h0c13.51,0,24.45-10.95,24.45-24.45V63.38c0-13.51-10.95-24.45-24.45-24.45h0c-13.51,0-24.45,10.95-24.45,24.45V323.02c0,13.51,10.95,24.45,24.45,24.45Z"/></g></svg>