<?xml version="1.0" encoding="UTF-8"?><svg id="Capa_1" xmlns="http://www.w3.org/2000/svg" viewBox="0 0 399.53 386.41"><defs><style>.cls-1{fill:#ffd7ee;}</style></defs><path class="cls-1" d="M61.57,239.37L10.22,122.75h14.62l45.08,104.1h.87l44.91-104.1h14.45l-51.35,116.63h-17.23Z"/><path class="cls-1" d="M140.08,142.42v-19.67h12.36v19.67h-12.36Zm0,96.96v-85.99h12.36v85.99h-12.36Z"/><path class="cls-1" d="M173.16,239.37v-85.99h11.14v26.98h.87c2.96-14.62,15.14-28.72,36.56-28.72,24.2,0,36.21,17.23,36.21,37.6v50.13h-12.36v-48.39c0-17.76-8.53-28.03-28.2-28.03-20.89,0-31.86,12.71-31.86,34.81v41.6h-12.36Z"/><path class="cls-1" d="M278.65,268.97v-11.31h13.05c8.7,0,12.01-2.61,15.32-9.75l4.18-8.7-42.65-85.82h13.58l25.24,51.18,9.57,21.06h1.04l9.23-21.24,23.85-51h13.58l-46.65,98c-6.27,13.23-14.27,17.58-28.55,17.58h-10.79Z"/><path class="cls-1" d="M376.48,239.37V122.75h12.36v116.63h-12.36Z"/></svg>