<?xml version="1.0" encoding="UTF-8"?><svg id="Capa_1" xmlns="http://www.w3.org/2000/svg" viewBox="0 0 399.53 386.41"><defs><style>.cls-1{fill:#2a223a;}</style></defs><path id="search" class="cls-1" d="M347.48,318.06l-68.35-68.35c19.06-25.72,28.96-58.61,24.26-93.94-7.8-58.71-56.1-105.3-115.05-111.02C107.09,36.87,39.15,104.89,47.15,186.16c5.86,59.46,53.28,107.92,112.6,115.05,36.07,4.34,69.56-6.45,95.29-26.67l67.98,67.98c6.75,6.75,17.71,6.75,24.46,0h0c6.75-6.75,6.75-17.71,0-24.46Zm-159.65-51.27c-61.68,7.84-113.78-44.26-105.95-105.94,5.34-42.04,39.29-75.99,81.34-81.34,61.68-7.84,113.79,44.27,105.94,105.95-5.34,42.04-39.29,75.99-81.33,81.33Z"/></svg>