<?xml version="1.0" encoding="UTF-8"?><svg id="Capa_1" xmlns="http://www.w3.org/2000/svg" viewBox="0 0 399.53 386.41"><defs><style>.cls-1{fill:#ffd7ee;}</style></defs><path class="cls-1" d="M272.43,385.85c-5.12,2.04-10.68-1.73-10.7-7.24l-.06-21.92c-.81-33.39-27.18-59.66-60.35-60.46-34.09-.82-62.67,27.84-63.51,61.93l-.05,2.05v18.38c0,5.52-5.57,9.3-10.7,7.26l-1.1-.44C46.01,353.58-4.38,275.46,.3,188.63,5.79,86.81,88.93,4.68,190.8,.2c114.21-5.02,208.74,86.44,208.74,199.57,0,82.32-49.45,155.19-125.97,185.63l-1.13,.45Zm5.83-37.98h.64l.05,8.45c.02,3.68,3.96,6.01,7.21,4.28,59.68-31.9,96.97-93.99,96.15-163.08-1.19-99.16-83.04-180.12-182.2-180.29-100.81-.18-182.87,81.78-182.87,182.54,0,68.16,37.1,129.23,96.1,160.8,3.26,1.75,7.23-.59,7.23-4.29v-8.4h.72c5.01-39.25,38.01-68.88,78.49-68.88s73.48,29.64,78.49,68.88Zm-70.38-100.29c-50.04,5-91.93-36.88-86.93-86.92,3.7-37.04,33.65-67,70.69-70.71,50.04-5,91.93,36.88,86.93,86.92-3.7,37.04-33.65,67-70.69,70.71Zm-1.78-140.49c-39.16-3.91-71.94,28.88-68.02,68.03,2.9,28.99,26.35,52.43,55.34,55.32,39.16,3.91,71.94-28.88,68.02-68.03-2.9-28.99-26.35-52.43-55.34-55.32Z"/></svg>