<?xml version="1.0" encoding="UTF-8"?><svg id="Capa_1" xmlns="http://www.w3.org/2000/svg" viewBox="0 0 399.53 386.41"><defs><style>.cls-1{fill:#ffd7ee;}</style></defs><path id="play" class="cls-1" d="M150.85,292.1c-7.28,0-14.54-1.91-21.17-5.74-13.26-7.66-21.18-21.36-21.18-36.68v-112.96c0-15.31,7.91-29.02,21.18-36.68,13.25-7.66,29.09-7.66,42.35,0l97.83,56.48c13.26,7.66,21.17,21.36,21.17,36.68s-7.91,29.02-21.17,36.68l-97.83,56.48c-6.63,3.83-13.9,5.74-21.17,5.74Zm0-180.55c-4.32,0-8.63,1.14-12.56,3.41-7.87,4.54-12.57,12.68-12.57,21.76v112.96c0,9.08,4.7,17.22,12.57,21.76,7.86,4.54,17.25,4.54,25.13,0l97.83-56.48c7.87-4.54,12.56-12.68,12.56-21.76s-4.7-17.22-12.56-21.76l-97.83-56.48c-3.93-2.27-8.25-3.41-12.56-3.41Z"/></svg>