<?xml version="1.0" encoding="UTF-8"?><svg id="Capa_1" xmlns="http://www.w3.org/2000/svg" viewBox="0 0 399.53 386.41"><defs><style>.cls-1{fill:#ffd7ee;}</style></defs><path class="cls-1" d="M380.38,164.46L206.85,23.39c-4.13-3.36-10.04-3.36-14.17,0L19.15,164.46c-4.81,3.91-5.54,10.99-1.63,15.8l1.04,1.28c3.91,4.81,10.99,5.54,15.8,1.63L192.68,54.46c4.13-3.36,10.04-3.36,14.17,0l158.32,128.7c4.81,3.91,11.89,3.18,15.8-1.63l1.04-1.28c3.91-4.81,3.18-11.89-1.63-15.8Z"/><path class="cls-1" d="M341.16,205.38h-1.64c-6.2,0-11.23,4.61-11.23,10.29v117.51c0,5.68-5.03,10.29-11.23,10.29H82.48c-6.2,0-11.23-4.61-11.23-10.29v-117.51c0-5.68-5.03-10.29-11.23-10.29h-1.64c-6.2,0-11.23,4.61-11.23,10.29v139.58c0,5.68,5.03,10.29,11.23,10.29H341.16c6.2,0,11.23-4.61,11.23-10.29V215.66c0-5.68-5.03-10.29-11.23-10.29Z"/></svg>